<mxfile host="app.diagrams.net" modified="2023-12-05T15:49:26.303Z" agent="Mozilla/5.0 (Windows NT 10.0; Win64; x64) AppleWebKit/537.36 (KHTML, like Gecko) Chrome/119.0.0.0 Safari/537.36 Edg/119.0.0.0" etag="x_nzdEjyW4zje9Y3I0is" version="22.1.5" type="github">
  <diagram name="Page-1" id="ItI1hB4IgXAXl_tU92D9">
    <mxGraphModel dx="1002" dy="535" grid="1" gridSize="10" guides="1" tooltips="1" connect="1" arrows="1" fold="1" page="1" pageScale="1" pageWidth="850" pageHeight="1100" math="0" shadow="0">
      <root>
        <mxCell id="0" />
        <mxCell id="1" parent="0" />
        <mxCell id="do_G5ldDrprHSxj4ACTd-5" style="edgeStyle=orthogonalEdgeStyle;rounded=0;orthogonalLoop=1;jettySize=auto;html=1;exitX=0.833;exitY=0.5;exitDx=0;exitDy=0;exitPerimeter=0;" edge="1" parent="1" source="do_G5ldDrprHSxj4ACTd-1" target="do_G5ldDrprHSxj4ACTd-3">
          <mxGeometry relative="1" as="geometry" />
        </mxCell>
        <mxCell id="do_G5ldDrprHSxj4ACTd-1" value="z" style="sketch=0;html=1;dashed=0;whitespace=wrap;fillColor=#2875E2;strokeColor=#ffffff;points=[[0.005,0.63,0],[0.1,0.2,0],[0.9,0.2,0],[0.5,0,0],[0.995,0.63,0],[0.72,0.99,0],[0.5,1,0],[0.28,0.99,0]];verticalLabelPosition=bottom;align=center;verticalAlign=top;shape=mxgraph.kubernetes.icon;prIcon=api" vertex="1" parent="1">
          <mxGeometry x="245" y="477.25" width="180" height="130" as="geometry" />
        </mxCell>
        <mxCell id="do_G5ldDrprHSxj4ACTd-2" value="" style="outlineConnect=0;dashed=0;verticalLabelPosition=bottom;verticalAlign=top;align=center;html=1;shape=mxgraph.aws3.dynamo_db;fillColor=#2E73B8;gradientColor=none;" vertex="1" parent="1">
          <mxGeometry x="299" y="220" width="72" height="81" as="geometry" />
        </mxCell>
        <mxCell id="do_G5ldDrprHSxj4ACTd-3" value="" style="outlineConnect=0;dashed=0;verticalLabelPosition=bottom;verticalAlign=top;align=center;html=1;shape=mxgraph.aws3.mysql_db_instance;fillColor=#2E73B8;gradientColor=none;" vertex="1" parent="1">
          <mxGeometry x="670" y="510" width="60" height="64.5" as="geometry" />
        </mxCell>
        <mxCell id="do_G5ldDrprHSxj4ACTd-7" style="edgeStyle=orthogonalEdgeStyle;rounded=0;orthogonalLoop=1;jettySize=auto;html=1;entryX=0.5;entryY=1;entryDx=0;entryDy=0;entryPerimeter=0;" edge="1" parent="1" source="do_G5ldDrprHSxj4ACTd-1" target="do_G5ldDrprHSxj4ACTd-2">
          <mxGeometry relative="1" as="geometry" />
        </mxCell>
      </root>
    </mxGraphModel>
  </diagram>
</mxfile>
